<mxfile host="app.diagrams.net" agent="Mozilla/5.0 (Windows NT 10.0; Win64; x64) AppleWebKit/537.36 (KHTML, like Gecko) Chrome/140.0.0.0 Safari/537.36" version="28.2.5">
  <diagram name="Page-1" id="iWGErk5dbzhqpiFSWhki">
    <mxGraphModel dx="872" dy="473" grid="1" gridSize="10" guides="1" tooltips="1" connect="1" arrows="1" fold="1" page="1" pageScale="1" pageWidth="850" pageHeight="1100" math="0" shadow="0">
      <root>
        <mxCell id="0" />
        <mxCell id="1" parent="0" />
        <mxCell id="5FtOODHKjCUbqHYTkDHm-1" value="" style="edgeStyle=orthogonalEdgeStyle;rounded=0;orthogonalLoop=1;jettySize=auto;html=1;" edge="1" parent="1" source="5FtOODHKjCUbqHYTkDHm-4" target="5FtOODHKjCUbqHYTkDHm-5">
          <mxGeometry relative="1" as="geometry" />
        </mxCell>
        <mxCell id="5FtOODHKjCUbqHYTkDHm-2" style="edgeStyle=orthogonalEdgeStyle;rounded=0;orthogonalLoop=1;jettySize=auto;html=1;exitX=0.08;exitY=0.05;exitDx=0;exitDy=0;exitPerimeter=0;" edge="1" parent="1" source="5FtOODHKjCUbqHYTkDHm-4" target="5FtOODHKjCUbqHYTkDHm-6">
          <mxGeometry relative="1" as="geometry" />
        </mxCell>
        <mxCell id="5FtOODHKjCUbqHYTkDHm-3" style="edgeStyle=orthogonalEdgeStyle;rounded=0;orthogonalLoop=1;jettySize=auto;html=1;exitX=1;exitY=0;exitDx=0;exitDy=0;exitPerimeter=0;" edge="1" parent="1" source="5FtOODHKjCUbqHYTkDHm-4" target="5FtOODHKjCUbqHYTkDHm-8">
          <mxGeometry relative="1" as="geometry" />
        </mxCell>
        <mxCell id="5FtOODHKjCUbqHYTkDHm-4" value="" style="shape=mxgraph.cisco.switches.layer_3_switch;sketch=0;html=1;pointerEvents=1;dashed=0;fillColor=#036897;strokeColor=#ffffff;strokeWidth=2;verticalLabelPosition=bottom;verticalAlign=top;align=center;outlineConnect=0;" vertex="1" parent="1">
          <mxGeometry x="138" y="180" width="74" height="64" as="geometry" />
        </mxCell>
        <mxCell id="5FtOODHKjCUbqHYTkDHm-5" value="" style="shape=mxgraph.cisco.computers_and_peripherals.pc;sketch=0;html=1;pointerEvents=1;dashed=0;fillColor=#036897;strokeColor=#ffffff;strokeWidth=2;verticalLabelPosition=bottom;verticalAlign=top;align=center;outlineConnect=0;" vertex="1" parent="1">
          <mxGeometry x="198" y="320" width="78" height="70" as="geometry" />
        </mxCell>
        <mxCell id="5FtOODHKjCUbqHYTkDHm-6" value="" style="shape=mxgraph.cisco.computers_and_peripherals.pc;sketch=0;html=1;pointerEvents=1;dashed=0;fillColor=#036897;strokeColor=#ffffff;strokeWidth=2;verticalLabelPosition=bottom;verticalAlign=top;align=center;outlineConnect=0;" vertex="1" parent="1">
          <mxGeometry x="60" y="320" width="78" height="70" as="geometry" />
        </mxCell>
        <mxCell id="5FtOODHKjCUbqHYTkDHm-7" value="" style="shape=mxgraph.cisco.computers_and_peripherals.pc;sketch=0;html=1;pointerEvents=1;dashed=0;fillColor=#036897;strokeColor=#ffffff;strokeWidth=2;verticalLabelPosition=bottom;verticalAlign=top;align=center;outlineConnect=0;" vertex="1" parent="1">
          <mxGeometry x="60" y="60" width="78" height="70" as="geometry" />
        </mxCell>
        <mxCell id="5FtOODHKjCUbqHYTkDHm-8" value="" style="shape=mxgraph.cisco.computers_and_peripherals.pc;sketch=0;html=1;pointerEvents=1;dashed=0;fillColor=#036897;strokeColor=#ffffff;strokeWidth=2;verticalLabelPosition=bottom;verticalAlign=top;align=center;outlineConnect=0;" vertex="1" parent="1">
          <mxGeometry x="212" y="50" width="78" height="70" as="geometry" />
        </mxCell>
        <mxCell id="5FtOODHKjCUbqHYTkDHm-9" style="edgeStyle=orthogonalEdgeStyle;rounded=0;orthogonalLoop=1;jettySize=auto;html=1;entryX=0.5;entryY=1;entryDx=0;entryDy=0;entryPerimeter=0;" edge="1" parent="1" source="5FtOODHKjCUbqHYTkDHm-4" target="5FtOODHKjCUbqHYTkDHm-7">
          <mxGeometry relative="1" as="geometry" />
        </mxCell>
      </root>
    </mxGraphModel>
  </diagram>
</mxfile>
